<svg width="86" height="75" viewBox="0 0 86 75" fill="none" xmlns="http://www.w3.org/2000/svg">
<path d="M43 75L0 60.2941L43 50L86 60.2941L43 75Z" fill="#FFB76C"/>
<path d="M43 65L0 50.2941L43 40L86 50.2941L43 65Z" fill="#FFB76C"/>
<path d="M43 55L0 40.2941L43 30L86 40.2941L43 55Z" fill="#443629"/>
<path d="M43 35L0 20.2941L43 10L86 20.2941L43 35Z" fill="#F8EF64"/>
<path d="M43 40L86 50.3521V60.2113L43 75L0 60.2113V50.3521L43 40Z" fill="#FFB76C"/>
<path d="M43 30L86 40.3521V50.2113L43 65L0 50.2113V40.3521L43 30Z" fill="#443629"/>
<path d="M43 20L86 30.3521V40.2113L43 55L0 40.2113V30.3521L43 20Z" fill="#F8EF64"/>
<path d="M43 10L86 20.3521V30.2113L43 45L0 30.2113V20.3521L43 10Z" fill="#443629"/>
<path d="M43 25L0 10.2941L43 0L86 10.2941L43 25Z" fill="#FF9CC2"/>
<path d="M0 20V10L43 25L86 10V20L43 35L0 20Z" fill="#F786B1"/>
</svg>
